<?xml version="1.0" encoding="UTF-8"?>
<svg width="33px" height="33px" viewBox="0 0 33 33" version="1.1" xmlns="http://www.w3.org/2000/svg" xmlns:xlink="http://www.w3.org/1999/xlink">
    <!-- Generator: Sketch 52.5 (67469) - http://www.bohemiancoding.com/sketch -->
    <title>icon</title>
    <desc>Created with Sketch.</desc>
    <g id="icon" stroke="none" stroke-width="1" fill="none" fill-rule="evenodd">
        <path d="M3,24 C3.13678668,23.9999201 3.27357336,23.9895876 3.41036004,23.9668562 C3.54573655,23.9441248 3.68252323,23.911061 3.81930991,23.8655982 C3.95609659,23.8222019 4.0914731,23.7664066 4.22825978,23.7002789 C4.36504646,23.6341512 4.50183314,23.557691 4.63861983,23.4708984 C4.77399633,23.3820393 4.91078302,23.2849143 5.0475697,23.1774567 C5.18435638,23.0699992 5.31973289,22.9522092 5.45651957,22.8240868 C5.59330625,22.6980309 5.73009293,22.559576 5.86546944,22.4149216 C6.00225612,22.2682008 6.1390428,22.113214 6.27582948,21.9499612 C6.41120599,21.7867084 6.54799267,21.6172562 6.68477935,21.4374715 C6.82156603,21.2576867 6.95835271,21.0717026 7.09372922,20.8774524 C7.2305159,20.6852688 7.36730258,20.4848192 7.50408926,20.2781701 C7.63946577,20.071521 7.77625245,19.8607389 7.91303913,19.6437574 C8.04982581,19.4247094 8.18520232,19.2035949 8.321989,18.9762809 C8.45877568,18.7510334 8.59556237,18.5195864 8.73093887,18.2860729 C8.86772555,18.0525595 9.00451224,17.814913 9.14129892,17.5752001 C9.2780856,17.3375536 9.41346211,17.0957742 9.55024879,16.8519283 C9.68703547,16.6101489 9.82382215,16.3663029 9.95919866,16.122457 L10.3695587,15.3909193 C10.5049352,15.1470734 10.6417219,14.9052939 10.7785086,14.6635145 C10.9152953,14.4238016 11.0506718,14.1840886 11.1874584,13.9485087 C11.3242451,13.7129287 11.4610318,13.4794153 11.5978185,13.2521013 C11.733195,13.0227208 11.8699817,12.7974733 12.0067684,12.5763588 C12.143555,12.3552442 12.2789315,12.1403292 12.4157182,11.9295471 C12.5525049,11.7187651 12.6892916,11.516249 12.8246681,11.3178658 C12.9614548,11.1194827 13.0982415,10.9272991 13.2350281,10.7433814 C13.3704046,10.5594637 13.5071913,10.383812 13.643978,10.2143597 C13.7807647,10.046974 13.9175514,9.88578769 14.0529279,9.73493386 C14.1897146,9.58201354 14.3265012,9.43942567 14.4632879,9.30717026 C14.5986644,9.17284835 14.7354511,9.0488589 14.8722378,8.93313542 C15.0090245,8.81947842 15.144401,8.71408739 15.2811877,8.6210953 C15.4179743,8.52603672 15.554761,8.44337709 15.6901375,8.36898342 C15.8269242,8.29665624 15.9637109,8.23259502 16.1004976,8.18093275 C16.2358741,8.12927048 16.3726608,8.09000716 16.5094474,8.05900979 C16.6462341,8.03007892 16.7830208,8.0114805 16.9183973,8.00321454 C17.055184,7.99701507 17.1919707,7.99908156 17.3287574,8.01561349 C17.4641339,8.03007892 17.6009205,8.05487681 17.7377072,8.09207365 C17.8744939,8.12927048 18.0098704,8.17886626 18.1466571,8.23672801 C18.2834438,8.29665624 18.4202305,8.36485044 18.555607,8.44544358 C18.6923936,8.52603672 18.8291803,8.61696232 18.965967,8.71822037 C19.1027537,8.81947842 19.2381302,8.93106893 19.3749169,9.05092539 C19.5117036,9.17284835 19.6484902,9.30303728 19.7838668,9.44355865 C19.9206534,9.58201354 20.0574401,9.73080088 20.1942268,9.88992067 C20.3296033,10.046974 20.46639,10.2122932 20.6031767,10.3858785 C20.7399633,10.5594637 20.8753399,10.7413149 21.0121265,10.9314321 C21.1489132,11.1194827 21.2856999,11.3157993 21.4224866,11.5183154 C21.5578631,11.7187651 21.6946498,11.9274806 21.8314364,12.1423957 C21.9682231,12.3552442 22.1035996,12.5742923 22.2403863,12.7974733 C22.377173,13.0227208 22.5139597,13.2500348 22.6493362,13.4814817 C22.7861229,13.7129287 22.9229095,13.9485087 23.0596962,14.1861551 C23.1950727,14.4238016 23.3318594,14.6635145 23.4686461,14.9052939 C23.6054328,15.1470734 23.7422195,15.3909193 23.877596,15.6347652 L24.287956,16.3663029 C24.4233325,16.6101489 24.5601192,16.8539948 24.6969059,17.0937077 C24.8336926,17.3354871 24.9690691,17.5772666 25.1058558,17.814913 C25.2426424,18.0525595 25.3794291,18.2860729 25.5148056,18.5195864 C25.6515923,18.7510334 25.788379,18.9783474 25.9251657,19.2015284 C26.0619523,19.4247094 26.1973289,19.6437574 26.3341155,19.8586725 C26.4709022,20.071521 26.6076889,20.2802366 26.7430654,20.4827527 C26.8798521,20.6852688 27.0166388,20.8815854 27.1534255,21.0696361 C27.288802,21.2576867 27.4255886,21.4395379 27.5623753,21.6131232 C27.699162,21.7867084 27.8345385,21.9540942 27.9713252,22.1111475 C28.1081119,22.2682008 28.2448986,22.4169881 28.3816852,22.5575095 C28.5170617,22.6980309 28.6538484,22.8282198 28.7906351,22.9480763 C28.9274218,23.0699992 29.0627983,23.1815897 29.199585,23.2828478 C29.3363717,23.3820393 29.4731583,23.4729649 29.6085348,23.5535581 C29.7453215,23.6341512 29.8821082,23.7044119 30.0188949,23.7622736 C30.1542714,23.8222019 30.2910581,23.8697312 30.4278448,23.906928 C30.5646314,23.9441248 30.7014181,23.9709892 30.8367946,23.9854546 C30.8911964,23.9912077 30.9455982,23.9953265 31,23.9976809 L31,24" id="Path" stroke="#2F2F2F" stroke-width="2" fill-opacity="0" fill="#000000" stroke-linecap="round"></path>
        <circle id="Oval" fill="#000000" cx="23.5" cy="15.5" r="3.5"></circle>
    </g>
</svg>